<?xml version="1.0" ?><svg height="62.666531" id="svg9" version="1.1" viewBox="0 0 74.661697 62.666531" width="74.661697" xmlns="http://www.w3.org/2000/svg" xmlns:svg="http://www.w3.org/2000/svg"><defs id="defs13"><clipPath clipPathUnits="userSpaceOnUse" id="clipPath181"><path d="M 0,64 H 64 V 0 H 0 Z" id="path179"/></clipPath></defs><g id="g173" transform="matrix(1.3333333,0,0,-1.3333333,-5.3333332,73.333331)"><g id="g175"><g clip-path="url(#clipPath181)" id="g177"><g id="g183" transform="translate(25,26)"><path d="M 0,0 H 30 V 15.05 C 30,16.125 29.125,17 28.05,17 H 1.95 C 0.875,17 0,16.125 0,15.05 Z M 31,-2 H -1 c -0.553,0 -1,0.448 -1,1 V 15.05 C -2,17.228 -0.228,19 1.95,19 h 26.1 C 30.228,19 32,17.228 32,15.05 V -1 c 0,-0.552 -0.447,-1 -1,-1" id="path185" style="fill:#231f20;fill-opacity:1;fill-rule:nonzero;stroke:none"/></g><g id="g187" transform="translate(56.4805,15.7002)"><path d="m 0,0 c -0.37,-0.45 -0.91,-0.7 -1.49,-0.7 h -30.17 c -0.57,0 -1.111,0.25 -1.481,0.7 -0.359,0.43 -0.509,0.99 -0.439,1.46 V 1.5 l 0.01,0.01 c 0,0.02 0.009,0.03 0.009,0.05 l 1.84,6.74 h 30.46 L 0.409,1.58 C 0.52,1.02 0.369,0.44 0,0 m 2.38,1.96 c 0,0.02 -0.011,0.03 -0.011,0.05 L 0.489,9.54 C 0.38,9.99 -0.021,10.3 -0.48,10.3 h -32 c -0.451,0 -0.85,-0.3 -0.96,-0.74 l -2.04,-7.45 -0.041,-0.16 c -0.219,-1.16 0.09,-2.33 0.84,-3.23 0.09,-0.11 0.191,-0.21 0.29,-0.31 0.731,-0.71 1.701,-1.11 2.731,-1.11 h 30.17 c 1.029,0 2.01,0.4 2.74,1.11 0.1,0.1 0.199,0.2 0.289,0.31 0.74,0.89 1.04,2.04 0.841,3.24" id="path189" style="fill:#231f20;fill-opacity:1;fill-rule:nonzero;stroke:none"/></g><g id="g191" transform="translate(42.5195,34.5)"><path d="m 0,0 c 0,-1.67 -1.35,-3.02 -3.02,-3.02 -1.669,0 -3.019,1.35 -3.019,3.02 0,1.67 1.35,3.02 3.019,3.02 C -1.35,3.02 0,1.67 0,0" id="path193" style="fill:#231f20;fill-opacity:1;fill-rule:nonzero;stroke:none"/></g><g id="g195" transform="translate(39.5,29.0601)"><path d="m 0,0 c -3,0 -5.44,2.44 -5.44,5.44 0,3 2.44,5.44 5.44,5.44 3,0 5.44,-2.44 5.44,-5.44 C 5.44,2.44 3,0 0,0 m 6.5,12.94 h -13 c -0.55,0 -1,-0.45 -1,-1 v -13 c 0,-0.55 0.45,-1 1,-1 h 13 c 0.55,0 1,0.45 1,1 v 13 c 0,0.55 -0.45,1 -1,1" id="path197" style="fill:#231f20;fill-opacity:1;fill-rule:nonzero;stroke:none"/></g><g id="g199" transform="translate(52,43)"><path d="M 0,0 C -0.553,0 -1,0.448 -1,1 V 7.063 L -4,7 c -0.553,0 -1,0.448 -1,1 0,0.552 0.447,1 1,1 h 3.063 C 0.131,9 1,8.131 1,7.063 V 1 C 1,0.448 0.553,0 0,0" id="path201" style="fill:#231f20;fill-opacity:1;fill-rule:nonzero;stroke:none"/></g><g id="g203" transform="translate(27,43)"><path d="M 0,0 C -0.553,0 -1,0.448 -1,1 V 7.063 C -1,8.131 -0.131,9 0.937,9 H 4 C 4.553,9 5,8.552 5,8 5,7.448 4.553,7 4,7 H 0.937 L 1,1 C 1,0.448 0.553,0 0,0" id="path205" style="fill:#231f20;fill-opacity:1;fill-rule:nonzero;stroke:none"/></g><path d="m 32,49 h 15 v 4 H 32 Z M 48,47 H 31 c -0.553,0 -1,0.448 -1,1 v 6 c 0,0.552 0.447,1 1,1 h 17 c 0.553,0 1,-0.448 1,-1 v -6 c 0,-0.552 -0.447,-1 -1,-1" id="path207" style="fill:#231f20;fill-opacity:1;fill-rule:nonzero;stroke:none"/><g id="g209" transform="translate(45,50)"><path d="m 0,0 h -11 c -0.553,0 -1,0.448 -1,1 0,0.552 0.447,1 1,1 H 0 C 0.553,2 1,1.552 1,1 1,0.448 0.553,0 0,0" id="path211" style="fill:#231f20;fill-opacity:1;fill-rule:nonzero;stroke:none"/></g><g id="g213" transform="translate(53,20)"><path d="m 0,0 h -26 c -0.553,0 -1,0.448 -1,1 0,0.552 0.447,1 1,1 H 0 C 0.553,2 1,1.552 1,1 1,0.448 0.553,0 0,0" id="path215" style="fill:#231f20;fill-opacity:1;fill-rule:nonzero;stroke:none"/></g><g id="g217" transform="translate(48,17)"><path d="m 0,0 h -15 c -0.553,0 -1,0.448 -1,1 0,0.552 0.447,1 1,1 H 0 C 0.553,2 1,1.552 1,1 1,0.448 0.553,0 0,0" id="path219" style="fill:#231f20;fill-opacity:1;fill-rule:nonzero;stroke:none"/></g><g id="g221" transform="translate(58.9902,9.8301)"><path d="m 0,0 c -0.9,-1.16 -2.271,-1.83 -3.74,-1.83 h -30.68 c -1.48,0 -2.84,0.67 -3.74,1.83 -0.91,1.16 -1.231,2.64 -0.87,4.07 l 1.009,3.82 c 0.011,0.03 0.021,0.06 0.031,0.09 l -0.04,-0.16 c -0.22,-1.16 0.09,-2.33 0.84,-3.23 0.089,-0.11 0.19,-0.21 0.29,-0.31 0.73,-0.71 1.7,-1.11 2.73,-1.11 H -4 c 1.029,0 2.01,0.4 2.74,1.11 0.1,0.1 0.199,0.2 0.289,0.31 0.741,0.89 1.04,2.04 0.841,3.24 L 0.859,4.08 C 1.22,2.64 0.91,1.16 0,0" id="path223" style="fill:#231f20;fill-opacity:1;fill-rule:nonzero;stroke:none"/></g><g id="g225" transform="translate(22.9102,17.21)"><path d="m 0,0 -0.01,-0.05 v 0.04 z" id="path227" style="fill:#231f20;fill-opacity:1;fill-rule:nonzero;stroke:none"/></g><g id="g229" transform="translate(52.4961,27)"><path d="M 0,0 H -1.992 C -2.271,0 -2.496,0.226 -2.496,0.504 V 2.496 C -2.496,2.774 -2.271,3 -1.992,3 H 0 C 0.278,3 0.504,2.774 0.504,2.496 V 0.504 C 0.504,0.226 0.278,0 0,0" id="path231" style="fill:#231f20;fill-opacity:1;fill-rule:nonzero;stroke:none"/></g><g id="g233" transform="translate(28,40)"><path d="m 0,0 c 0,-0.552 -0.447,-1 -1,-1 -0.553,0 -1,0.448 -1,1 0,0.552 0.447,1 1,1 0.553,0 1,-0.448 1,-1" id="path235" style="fill:#231f20;fill-opacity:1;fill-rule:nonzero;stroke:none"/></g><g id="g237" transform="translate(24,24)"><path d="m 0,0 h -8 c -0.553,0 -1,0.448 -1,1 0,0.552 0.447,1 1,1 H 0 C 0.553,2 1,1.552 1,1 1,0.448 0.553,0 0,0" id="path239" style="fill:#231f20;fill-opacity:1;fill-rule:nonzero;stroke:none"/></g><g id="g241" transform="translate(17,35.9399)"><path d="m 0,0 v -10.94 c 0,-0.55 -0.45,-1 -1,-1 h -6 c -0.55,0 -1,0.45 -1,1 V 0 c 0.63,-0.31 1.3,-0.56 2,-0.72 0.64,-0.14 1.31,-0.22 2,-0.22 0.69,0 1.36,0.08 2,0.22 0.7,0.16 1.37,0.41 2,0.72" id="path243" style="fill:#231f20;fill-opacity:1;fill-rule:nonzero;stroke:none"/></g><g id="g245" transform="translate(11,43)"><path d="m 0,0 v -7.78 c -0.7,0.16 -1.37,0.41 -2,0.72 V 0 c 0,0.55 0.45,1 1,1 0.55,0 1,-0.45 1,-1" id="path247" style="fill:#231f20;fill-opacity:1;fill-rule:nonzero;stroke:none"/></g><g id="g249" transform="translate(17,43)"><path d="M 0,0 V -7.06 C -0.63,-7.37 -1.3,-7.62 -2,-7.78 V 0 c 0,0.55 0.45,1 1,1 0.55,0 1,-0.45 1,-1" id="path251" style="fill:#231f20;fill-opacity:1;fill-rule:nonzero;stroke:none"/></g><g id="g253" transform="translate(14,21)"><path d="m 0,0 h -2 c -0.553,0 -1,0.448 -1,1 v 2 c 0,0.552 0.447,1 1,1 H 0 C 0.553,4 1,3.552 1,3 V 1 C 1,0.448 0.553,0 0,0" id="path255" style="fill:#231f20;fill-opacity:1;fill-rule:nonzero;stroke:none"/></g><g id="g257" transform="translate(17,38.2598)"><path d="m 0,0 c -0.6,-0.43 -1.28,-0.75 -2,-0.97 -0.63,-0.19 -1.31,-0.29 -2,-0.29 -0.69,0 -1.37,0.1 -2,0.29 -0.72,0.22 -1.4,0.54 -2,0.97 -1.81,1.271 -3,3.37 -3,5.74 0,3.86 3.14,7 7,7 3.86,0 7,-3.14 7,-7 C 3,3.37 1.81,1.271 0,0 m -4,14.74 c -4.96,0 -9,-4.04 -9,-9 0,-3.53 2.04,-6.59 5,-8.06 0.63,-0.31 1.3,-0.56 2,-0.72 0.64,-0.14 1.31,-0.22 2,-0.22 0.69,0 1.36,0.08 2,0.22 0.7,0.16 1.37,0.41 2,0.72 2.96,1.47 5,4.53 5,8.06 0,4.96 -4.04,9 -9,9" id="path259" style="fill:#231f20;fill-opacity:1;fill-rule:nonzero;stroke:none"/></g></g></g></g></svg>